<svg width="2698" height="669" viewBox="0 0 2698 669" fill="none" xmlns="http://www.w3.org/2000/svg">
<rect y="77" width="512" height="512" rx="32" fill="#E46124"/>
<path d="M173 450V215H338V266.406H236.708V306.797H327.917V358.203H236.708V450H173Z" fill="white"/>
<path d="M630.688 407V101.545H845.46V168.364H713.614V220.864H832.335V287.682H713.614V407H630.688ZM936.067 410.58C921.451 410.58 908.525 408.193 897.289 403.42C886.153 398.548 877.403 391.19 871.039 381.347C864.675 371.503 861.494 358.974 861.494 343.761C861.494 331.233 863.631 320.544 867.907 311.695C872.183 302.746 878.148 295.438 885.805 289.77C893.461 284.102 902.36 279.777 912.502 276.794C922.744 273.811 933.781 271.872 945.613 270.977C958.44 269.983 968.731 268.79 976.487 267.398C984.342 265.906 990.009 263.868 993.489 261.283C996.969 258.598 998.71 255.068 998.71 250.693V250.097C998.71 244.131 996.423 239.557 991.849 236.375C987.275 233.193 981.408 231.602 974.249 231.602C966.394 231.602 959.981 233.342 955.009 236.822C950.137 240.203 947.204 245.423 946.21 252.483H870.442C871.437 238.562 875.862 225.736 883.717 214.003C891.671 202.17 903.255 192.724 918.468 185.665C933.681 178.506 952.673 174.926 975.442 174.926C991.849 174.926 1006.56 176.865 1019.59 180.743C1032.62 184.521 1043.7 189.841 1052.85 196.702C1062 203.463 1068.96 211.418 1073.73 220.565C1078.6 229.614 1081.04 239.457 1081.04 250.097V407H1004.08V374.784H1002.29C997.715 383.335 992.147 390.246 985.585 395.516C979.121 400.786 971.714 404.614 963.362 407C955.109 409.386 946.011 410.58 936.067 410.58ZM962.914 358.676C969.178 358.676 975.045 357.384 980.513 354.798C986.082 352.213 990.606 348.484 994.086 343.612C997.566 338.74 999.306 332.824 999.306 325.864V306.773C997.119 307.668 994.782 308.513 992.296 309.308C989.91 310.104 987.325 310.849 984.54 311.545C981.856 312.241 978.972 312.888 975.89 313.484C972.907 314.081 969.775 314.628 966.494 315.125C960.13 316.119 954.91 317.76 950.833 320.047C946.856 322.234 943.873 324.969 941.884 328.25C939.995 331.432 939.05 335.011 939.05 338.989C939.05 345.352 941.288 350.224 945.762 353.605C950.237 356.986 955.954 358.676 962.914 358.676ZM1120.38 407V177.909H1202.71V407H1120.38ZM1161.54 154.045C1150.41 154.045 1140.86 150.366 1132.91 143.009C1124.95 135.651 1120.97 126.801 1120.97 116.46C1120.97 106.119 1124.95 97.2699 1132.91 89.9119C1140.86 82.554 1150.41 78.875 1161.54 78.875C1172.78 78.875 1182.32 82.554 1190.18 89.9119C1198.13 97.2699 1202.11 106.119 1202.11 116.46C1202.11 126.801 1198.13 135.651 1190.18 143.009C1182.32 150.366 1172.78 154.045 1161.54 154.045ZM1244.65 407V177.909H1324.6V221.46H1326.98C1331.16 205.352 1337.77 193.57 1346.82 186.112C1355.97 178.655 1366.66 174.926 1378.89 174.926C1382.47 174.926 1386 175.224 1389.48 175.821C1393.06 176.318 1396.49 177.064 1399.77 178.058V248.307C1395.69 246.915 1390.67 245.871 1384.7 245.175C1378.74 244.479 1373.62 244.131 1369.34 244.131C1361.29 244.131 1354.03 245.97 1347.57 249.649C1341.2 253.229 1336.18 258.3 1332.5 264.862C1328.82 271.325 1326.98 278.932 1326.98 287.682V407H1244.65ZM1509.09 101.545V407H1426.76V101.545H1509.09ZM1551.04 407V177.909H1633.37V407H1551.04ZM1592.21 154.045C1581.07 154.045 1571.52 150.366 1563.57 143.009C1555.61 135.651 1551.64 126.801 1551.64 116.46C1551.64 106.119 1555.61 97.2699 1563.57 89.9119C1571.52 82.554 1581.07 78.875 1592.21 78.875C1603.44 78.875 1612.99 82.554 1620.84 89.9119C1628.8 97.2699 1632.77 106.119 1632.77 116.46C1632.77 126.801 1628.8 135.651 1620.84 143.009C1612.99 150.366 1603.44 154.045 1592.21 154.045ZM1757.65 278.136V407H1675.32V177.909H1753.47V221.46H1755.86C1760.83 206.943 1769.58 195.558 1782.11 187.305C1794.74 179.053 1809.45 174.926 1826.26 174.926C1842.46 174.926 1856.53 178.655 1868.46 186.112C1880.5 193.47 1889.79 203.612 1896.36 216.538C1903.02 229.464 1906.3 244.23 1906.2 260.835V407H1823.87V278.136C1823.97 266.801 1821.09 257.902 1815.22 251.439C1809.45 244.976 1801.4 241.744 1791.06 241.744C1784.3 241.744 1778.38 243.236 1773.31 246.219C1768.34 249.102 1764.51 253.278 1761.82 258.747C1759.14 264.116 1757.75 270.58 1757.65 278.136ZM2020.82 352.71L2021.42 254.869H2032.15L2087.64 177.909H2180.11L2087.04 297.824H2063.77L2020.82 352.71ZM1946.84 407V101.545H2029.17V407H1946.84ZM2088.23 407L2035.73 316.318L2089.43 257.852L2182.5 407H2088.23ZM2301.89 411.176C2277.43 411.176 2256.35 406.503 2238.65 397.156C2221.05 387.71 2207.48 374.187 2197.93 356.588C2188.49 338.889 2183.76 317.71 2183.76 293.051C2183.76 269.386 2188.54 248.705 2198.08 231.006C2207.63 213.307 2221.1 199.536 2238.5 189.692C2255.9 179.848 2276.43 174.926 2300.1 174.926C2317.4 174.926 2333.06 177.611 2347.08 182.98C2361.1 188.349 2373.08 196.155 2383.02 206.396C2392.97 216.538 2400.62 228.868 2405.99 243.385C2411.36 257.902 2414.05 274.259 2414.05 292.455V311.545H2209.42V266.205H2338.28C2338.18 259.642 2336.49 253.875 2333.21 248.903C2330.03 243.832 2325.7 239.905 2320.23 237.121C2314.86 234.237 2308.75 232.795 2301.89 232.795C2295.23 232.795 2289.11 234.237 2283.54 237.121C2277.97 239.905 2273.5 243.783 2270.12 248.754C2266.84 253.726 2265.1 259.543 2264.9 266.205V315.125C2264.9 322.483 2266.44 329.045 2269.52 334.812C2272.61 340.58 2277.03 345.104 2282.8 348.385C2288.56 351.666 2295.52 353.307 2303.68 353.307C2309.35 353.307 2314.52 352.511 2319.19 350.92C2323.96 349.33 2328.04 347.043 2331.42 344.06C2334.8 340.977 2337.29 337.298 2338.88 333.023H2414.05C2411.46 348.932 2405.35 362.753 2395.7 374.486C2386.06 386.119 2373.28 395.168 2357.37 401.631C2341.56 407.994 2323.07 411.176 2301.89 411.176ZM2530.57 409.983C2514.26 409.983 2499.25 405.707 2485.53 397.156C2471.9 388.605 2460.97 375.629 2452.71 358.229C2444.56 340.828 2440.48 318.903 2440.48 292.455C2440.48 264.812 2444.76 242.341 2453.31 225.04C2461.96 207.739 2473.1 195.061 2486.72 187.007C2500.44 178.953 2514.86 174.926 2529.97 174.926C2541.31 174.926 2551.25 176.915 2559.8 180.892C2568.35 184.77 2575.51 189.99 2581.28 196.553C2587.05 203.016 2591.42 210.125 2594.4 217.881H2595.6V101.545H2677.93V407H2596.19V369.415H2594.4C2591.22 377.17 2586.65 384.131 2580.68 390.295C2574.82 396.361 2567.66 401.183 2559.2 404.763C2550.85 408.243 2541.31 409.983 2530.57 409.983ZM2560.99 346.744C2568.55 346.744 2575.01 344.557 2580.38 340.182C2585.85 335.707 2590.03 329.443 2592.91 321.389C2595.9 313.236 2597.39 303.591 2597.39 292.455C2597.39 281.119 2595.9 271.425 2592.91 263.371C2590.03 255.217 2585.85 249.003 2580.38 244.727C2575.01 240.352 2568.55 238.165 2560.99 238.165C2553.44 238.165 2546.97 240.352 2541.61 244.727C2536.34 249.003 2532.26 255.217 2529.38 263.371C2526.59 271.425 2525.2 281.119 2525.2 292.455C2525.2 303.79 2526.59 313.534 2529.38 321.688C2532.26 329.741 2536.34 335.956 2541.61 340.331C2546.97 344.607 2553.44 346.744 2560.99 346.744Z" fill="white"/>
<path d="M622.719 566H614.366L646.114 478.727H654.636L686.384 566H678.031L650.673 489.082H650.077L622.719 566ZM628.727 532.548H672.023V539.707H628.727V532.548ZM707.349 478.727V566H699.764V478.727H707.349ZM735.006 478.727V566H727.42V478.727H735.006ZM755.162 566V500.545H762.79V566H755.162ZM759.04 489.295C757.477 489.295 756.142 488.77 755.034 487.719C753.926 486.639 753.372 485.347 753.372 483.841C753.372 482.335 753.926 481.057 755.034 480.006C756.142 478.926 757.477 478.386 759.04 478.386C760.602 478.386 761.938 478.926 763.045 480.006C764.153 481.057 764.707 482.335 764.707 483.841C764.707 485.347 764.153 486.639 763.045 487.719C761.938 488.77 760.602 489.295 759.04 489.295ZM801.131 567.491C797.183 567.491 793.575 566.724 790.308 565.19C787.04 563.628 784.441 561.384 782.509 558.457C780.577 555.503 779.612 551.923 779.612 547.719C779.612 544.48 780.222 541.753 781.444 539.537C782.665 537.321 784.398 535.503 786.643 534.082C788.887 532.662 791.543 531.54 794.612 530.716C797.68 529.892 801.06 529.253 804.754 528.798C808.418 528.344 811.515 527.946 814.043 527.605C816.6 527.264 818.546 526.724 819.881 525.986C821.217 525.247 821.884 524.054 821.884 522.406V520.872C821.884 516.412 820.549 512.903 817.879 510.347C815.237 507.761 811.43 506.469 806.458 506.469C801.742 506.469 797.893 507.506 794.91 509.58C791.955 511.653 789.881 514.097 788.688 516.909L781.487 514.31C782.964 510.73 785.009 507.875 787.623 505.744C790.237 503.585 793.163 502.037 796.401 501.099C799.64 500.134 802.921 499.651 806.245 499.651C808.745 499.651 811.344 499.977 814.043 500.631C816.771 501.284 819.299 502.42 821.629 504.04C823.958 505.631 825.847 507.861 827.296 510.73C828.745 513.571 829.469 517.179 829.469 521.554V566H821.884V555.645H821.415C820.506 557.577 819.157 559.452 817.367 561.27C815.577 563.088 813.333 564.58 810.634 565.744C807.935 566.909 804.768 567.491 801.131 567.491ZM802.154 560.545C806.188 560.545 809.683 559.651 812.637 557.861C815.592 556.071 817.864 553.699 819.455 550.744C821.075 547.761 821.884 544.48 821.884 540.901V531.44C821.316 531.98 820.364 532.463 819.029 532.889C817.722 533.315 816.202 533.699 814.469 534.04C812.765 534.352 811.06 534.622 809.356 534.849C807.651 535.077 806.117 535.276 804.754 535.446C801.06 535.901 797.907 536.611 795.293 537.577C792.68 538.543 790.677 539.878 789.285 541.582C787.893 543.259 787.197 545.418 787.197 548.06C787.197 552.037 788.617 555.119 791.458 557.307C794.299 559.466 797.864 560.545 802.154 560.545ZM857.232 525.091V566H849.647V500.545H857.019V510.815H857.701C859.235 507.463 861.621 504.778 864.86 502.761C868.127 500.716 872.161 499.693 876.962 499.693C881.366 499.693 885.229 500.616 888.553 502.463C891.906 504.281 894.505 506.966 896.352 510.517C898.227 514.068 899.164 518.429 899.164 523.599V566H891.579V524.068C891.579 518.699 890.073 514.452 887.062 511.327C884.079 508.202 880.073 506.639 875.045 506.639C871.607 506.639 868.553 507.378 865.883 508.855C863.212 510.332 861.096 512.463 859.533 515.247C857.999 518.003 857.232 521.284 857.232 525.091ZM917.094 566V559.991L954.935 508.259V507.705H918.713V500.545H964.693V506.81L927.534 558.287V558.841H966.057V566H917.094ZM1043.45 500.545V507.151H1011.28V500.545H1043.45ZM1021.34 566V490.957C1021.34 487.435 1022.15 484.466 1023.77 482.051C1025.41 479.636 1027.56 477.804 1030.2 476.554C1032.84 475.304 1035.64 474.679 1038.6 474.679C1040.58 474.679 1042.23 474.849 1043.54 475.19C1044.87 475.503 1045.93 475.815 1046.69 476.128L1044.48 482.776C1043.91 482.605 1043.21 482.406 1042.39 482.179C1041.56 481.952 1040.53 481.838 1039.28 481.838C1035.98 481.838 1033.44 482.761 1031.65 484.608C1029.86 486.455 1028.97 489.097 1028.97 492.534L1028.92 566H1021.34ZM1100.18 540.986V500.545H1107.77V566H1100.18V555.134H1099.59C1098.05 558.486 1095.62 561.284 1092.3 563.528C1088.98 565.744 1084.91 566.852 1080.11 566.852C1075.94 566.852 1072.23 565.943 1068.99 564.125C1065.75 562.278 1063.21 559.58 1061.36 556.028C1059.52 552.477 1058.59 548.116 1058.59 542.946V500.545H1066.18V542.477C1066.18 547.591 1067.68 551.71 1070.69 554.835C1073.71 557.932 1077.57 559.48 1082.29 559.48C1085.24 559.48 1088.08 558.77 1090.81 557.349C1093.54 555.929 1095.78 553.855 1097.54 551.128C1099.3 548.372 1100.18 544.991 1100.18 540.986ZM1072.31 489.295C1070.87 489.295 1069.59 488.756 1068.48 487.676C1067.4 486.568 1066.86 485.29 1066.86 483.841C1066.86 482.278 1067.4 480.986 1068.48 479.963C1069.59 478.912 1070.87 478.386 1072.31 478.386C1073.88 478.386 1075.17 478.912 1076.19 479.963C1077.24 480.986 1077.77 482.278 1077.77 483.841C1077.77 485.29 1077.24 486.568 1076.19 487.676C1075.17 488.756 1073.88 489.295 1072.31 489.295ZM1094.13 489.295C1092.68 489.295 1091.4 488.756 1090.3 487.676C1089.22 486.568 1088.68 485.29 1088.68 483.841C1088.68 482.278 1089.22 480.986 1090.3 479.963C1091.4 478.912 1092.68 478.386 1094.13 478.386C1095.69 478.386 1096.99 478.912 1098.01 479.963C1099.06 480.986 1099.59 482.278 1099.59 483.841C1099.59 485.29 1099.06 486.568 1098.01 487.676C1096.99 488.756 1095.69 489.295 1094.13 489.295ZM1127.85 566V500.545H1135.22V510.602H1135.78C1137.08 507.307 1139.36 504.651 1142.59 502.634C1145.86 500.588 1149.55 499.565 1153.67 499.565C1154.3 499.565 1155 499.58 1155.76 499.608C1156.53 499.636 1157.17 499.665 1157.68 499.693V507.406C1157.34 507.349 1156.74 507.264 1155.89 507.151C1155.04 507.037 1154.11 506.98 1153.12 506.98C1149.71 506.98 1146.67 507.705 1144 509.153C1141.36 510.574 1139.27 512.548 1137.74 515.077C1136.2 517.605 1135.44 520.489 1135.44 523.727V566H1127.85ZM1227.94 567.364C1222.57 567.364 1217.87 565.943 1213.83 563.102C1209.8 560.261 1206.65 556.298 1204.37 551.213C1202.13 546.128 1201.01 540.205 1201.01 533.443C1201.01 526.71 1202.13 520.815 1204.37 515.759C1206.65 510.673 1209.81 506.724 1213.88 503.912C1217.94 501.071 1222.67 499.651 1228.07 499.651C1232.04 499.651 1235.35 500.361 1238 501.781C1240.64 503.173 1242.75 504.906 1244.35 506.98C1245.94 509.054 1247.17 511.071 1248.05 513.031H1248.73V478.727H1256.36V566H1248.95V553.855H1248.05C1247.17 555.844 1245.92 557.889 1244.3 559.991C1242.68 562.065 1240.54 563.812 1237.87 565.233C1235.23 566.653 1231.92 567.364 1227.94 567.364ZM1228.83 560.418C1233.07 560.418 1236.67 559.267 1239.66 556.966C1242.64 554.636 1244.91 551.44 1246.48 547.378C1248.07 543.287 1248.86 538.599 1248.86 533.315C1248.86 528.088 1248.08 523.472 1246.52 519.466C1244.96 515.432 1242.68 512.278 1239.7 510.006C1236.72 507.705 1233.1 506.554 1228.83 506.554C1224.46 506.554 1220.77 507.747 1217.75 510.134C1214.77 512.491 1212.5 515.687 1210.94 519.722C1209.4 523.756 1208.63 528.287 1208.63 533.315C1208.63 538.401 1209.42 542.989 1210.98 547.08C1212.54 551.17 1214.81 554.423 1217.8 556.838C1220.81 559.224 1224.49 560.418 1228.83 560.418ZM1278.05 566V500.545H1285.68V566H1278.05ZM1281.93 489.295C1280.37 489.295 1279.03 488.77 1277.92 487.719C1276.82 486.639 1276.26 485.347 1276.26 483.841C1276.26 482.335 1276.82 481.057 1277.92 480.006C1279.03 478.926 1280.37 478.386 1281.93 478.386C1283.49 478.386 1284.83 478.926 1285.94 480.006C1287.04 481.057 1287.6 482.335 1287.6 483.841C1287.6 485.347 1287.04 486.639 1285.94 487.719C1284.83 488.77 1283.49 489.295 1281.93 489.295ZM1330.71 591.909C1326.25 591.909 1322.35 591.327 1318.99 590.162C1315.64 589.026 1312.81 587.463 1310.51 585.474C1308.21 583.486 1306.42 581.256 1305.14 578.784L1311.37 574.693C1312.3 576.341 1313.55 577.96 1315.12 579.551C1316.71 581.142 1318.77 582.463 1321.29 583.514C1323.85 584.565 1326.99 585.091 1330.71 585.091C1336.51 585.091 1341.18 583.642 1344.73 580.744C1348.31 577.847 1350.1 573.344 1350.1 567.236V552.491H1349.42C1348.54 554.48 1347.27 556.469 1345.63 558.457C1343.98 560.418 1341.82 562.051 1339.15 563.358C1336.51 564.665 1333.23 565.318 1329.31 565.318C1324.08 565.318 1319.43 564.026 1315.37 561.44C1311.34 558.855 1308.16 555.162 1305.83 550.361C1303.52 545.531 1302.37 539.778 1302.37 533.102C1302.37 526.483 1303.5 520.659 1305.74 515.631C1308.01 510.602 1311.18 506.682 1315.24 503.869C1319.31 501.057 1324.04 499.651 1329.43 499.651C1333.44 499.651 1336.76 500.361 1339.41 501.781C1342.05 503.173 1344.16 504.906 1345.75 506.98C1347.37 509.054 1348.64 511.071 1349.55 513.031H1350.31V500.545H1357.73V567.705C1357.73 573.244 1356.55 577.804 1354.19 581.384C1351.83 584.963 1348.62 587.605 1344.56 589.31C1340.5 591.043 1335.88 591.909 1330.71 591.909ZM1330.2 558.372C1334.41 558.372 1338 557.364 1340.98 555.347C1343.97 553.301 1346.25 550.375 1347.84 546.568C1349.43 542.761 1350.23 538.23 1350.23 532.974C1350.23 527.861 1349.45 523.33 1347.89 519.381C1346.32 515.403 1344.05 512.278 1341.07 510.006C1338.11 507.705 1334.49 506.554 1330.2 506.554C1325.83 506.554 1322.13 507.733 1319.12 510.091C1316.11 512.449 1313.84 515.631 1312.3 519.636C1310.77 523.614 1310 528.06 1310 532.974C1310 537.974 1310.78 542.392 1312.35 546.227C1313.91 550.034 1316.2 553.017 1319.21 555.176C1322.22 557.307 1325.88 558.372 1330.2 558.372ZM1377.9 566V500.545H1385.52V566H1377.9ZM1381.77 489.295C1380.21 489.295 1378.88 488.77 1377.77 487.719C1376.66 486.639 1376.11 485.347 1376.11 483.841C1376.11 482.335 1376.66 481.057 1377.77 480.006C1378.88 478.926 1380.21 478.386 1381.77 478.386C1383.34 478.386 1384.67 478.926 1385.78 480.006C1386.89 481.057 1387.44 482.335 1387.44 483.841C1387.44 485.347 1386.89 486.639 1385.78 487.719C1384.67 488.77 1383.34 489.295 1381.77 489.295ZM1431.37 500.545V507.151H1400.13V500.545H1431.37ZM1409.89 484.864H1417.52V548.912C1417.52 551.639 1417.99 553.784 1418.92 555.347C1419.86 556.881 1421.08 557.974 1422.59 558.628C1424.09 559.253 1425.7 559.565 1427.4 559.565C1428.4 559.565 1429.25 559.509 1429.96 559.395C1430.67 559.253 1431.29 559.111 1431.83 558.969L1433.45 565.83C1432.72 566.114 1431.81 566.369 1430.73 566.597C1429.65 566.852 1428.31 566.98 1426.72 566.98C1423.94 566.98 1421.25 566.369 1418.67 565.148C1416.11 563.926 1414.01 562.108 1412.36 559.693C1410.71 557.278 1409.89 554.281 1409.89 550.702V484.864ZM1466.87 567.491C1462.92 567.491 1459.32 566.724 1456.05 565.19C1452.78 563.628 1450.18 561.384 1448.25 558.457C1446.32 555.503 1445.35 551.923 1445.35 547.719C1445.35 544.48 1445.96 541.753 1447.19 539.537C1448.41 537.321 1450.14 535.503 1452.38 534.082C1454.63 532.662 1457.29 531.54 1460.35 530.716C1463.42 529.892 1466.8 529.253 1470.5 528.798C1474.16 528.344 1477.26 527.946 1479.79 527.605C1482.34 527.264 1484.29 526.724 1485.62 525.986C1486.96 525.247 1487.63 524.054 1487.63 522.406V520.872C1487.63 516.412 1486.29 512.903 1483.62 510.347C1480.98 507.761 1477.17 506.469 1472.2 506.469C1467.48 506.469 1463.63 507.506 1460.65 509.58C1457.7 511.653 1455.62 514.097 1454.43 516.909L1447.23 514.31C1448.71 510.73 1450.75 507.875 1453.37 505.744C1455.98 503.585 1458.9 502.037 1462.14 501.099C1465.38 500.134 1468.66 499.651 1471.99 499.651C1474.49 499.651 1477.09 499.977 1479.79 500.631C1482.51 501.284 1485.04 502.42 1487.37 504.04C1489.7 505.631 1491.59 507.861 1493.04 510.73C1494.49 513.571 1495.21 517.179 1495.21 521.554V566H1487.63V555.645H1487.16C1486.25 557.577 1484.9 559.452 1483.11 561.27C1481.32 563.088 1479.08 564.58 1476.38 565.744C1473.68 566.909 1470.51 567.491 1466.87 567.491ZM1467.9 560.545C1471.93 560.545 1475.42 559.651 1478.38 557.861C1481.33 556.071 1483.61 553.699 1485.2 550.744C1486.82 547.761 1487.63 544.48 1487.63 540.901V531.44C1487.06 531.98 1486.11 532.463 1484.77 532.889C1483.46 533.315 1481.94 533.699 1480.21 534.04C1478.51 534.352 1476.8 534.622 1475.1 534.849C1473.39 535.077 1471.86 535.276 1470.5 535.446C1466.8 535.901 1463.65 536.611 1461.04 537.577C1458.42 538.543 1456.42 539.878 1455.03 541.582C1453.63 543.259 1452.94 545.418 1452.94 548.06C1452.94 552.037 1454.36 555.119 1457.2 557.307C1460.04 559.466 1463.61 560.545 1467.9 560.545ZM1522.97 478.727V566H1515.39V478.727H1522.97ZM1569.51 567.364C1563.4 567.364 1558.12 565.943 1553.66 563.102C1549.2 560.233 1545.74 556.27 1543.3 551.213C1540.89 546.128 1539.68 540.276 1539.68 533.656C1539.68 527.065 1540.89 521.213 1543.3 516.099C1545.74 510.957 1549.11 506.937 1553.4 504.04C1557.72 501.114 1562.7 499.651 1568.36 499.651C1571.91 499.651 1575.33 500.304 1578.63 501.611C1581.92 502.889 1584.88 504.864 1587.49 507.534C1590.13 510.176 1592.22 513.514 1593.76 517.548C1595.29 521.554 1596.06 526.298 1596.06 531.781V535.531H1544.92V528.841H1588.3C1588.3 524.636 1587.45 520.858 1585.74 517.506C1584.07 514.125 1581.72 511.455 1578.71 509.494C1575.73 507.534 1572.28 506.554 1568.36 506.554C1564.21 506.554 1560.56 507.662 1557.41 509.878C1554.25 512.094 1551.78 515.02 1549.99 518.656C1548.23 522.293 1547.34 526.27 1547.31 530.588V534.594C1547.31 539.793 1548.2 544.338 1549.99 548.23C1551.81 552.094 1554.38 555.091 1557.7 557.222C1561.03 559.352 1564.96 560.418 1569.51 560.418C1572.61 560.418 1575.32 559.935 1577.65 558.969C1580.01 558.003 1581.98 556.71 1583.57 555.091C1585.19 553.443 1586.41 551.639 1587.24 549.679L1594.44 552.023C1593.44 554.778 1591.81 557.321 1589.54 559.651C1587.29 561.98 1584.48 563.855 1581.1 565.276C1577.75 566.668 1573.88 567.364 1569.51 567.364ZM1648.1 566V478.727H1698.6V485.886H1656.07V518.741H1694.63V525.901H1656.07V566H1648.1ZM1735.12 567.491C1731.17 567.491 1727.56 566.724 1724.29 565.19C1721.02 563.628 1718.43 561.384 1716.49 558.457C1714.56 555.503 1713.6 551.923 1713.6 547.719C1713.6 544.48 1714.21 541.753 1715.43 539.537C1716.65 537.321 1718.38 535.503 1720.63 534.082C1722.87 532.662 1725.53 531.54 1728.6 530.716C1731.66 529.892 1735.04 529.253 1738.74 528.798C1742.4 528.344 1745.5 527.946 1748.03 527.605C1750.58 527.264 1752.53 526.724 1753.87 525.986C1755.2 525.247 1755.87 524.054 1755.87 522.406V520.872C1755.87 516.412 1754.53 512.903 1751.86 510.347C1749.22 507.761 1745.41 506.469 1740.44 506.469C1735.73 506.469 1731.88 507.506 1728.89 509.58C1725.94 511.653 1723.87 514.097 1722.67 516.909L1715.47 514.31C1716.95 510.73 1718.99 507.875 1721.61 505.744C1724.22 503.585 1727.15 502.037 1730.39 501.099C1733.62 500.134 1736.91 499.651 1740.23 499.651C1742.73 499.651 1745.33 499.977 1748.03 500.631C1750.75 501.284 1753.28 502.42 1755.61 504.04C1757.94 505.631 1759.83 507.861 1761.28 510.73C1762.73 513.571 1763.45 517.179 1763.45 521.554V566H1755.87V555.645H1755.4C1754.49 557.577 1753.14 559.452 1751.35 561.27C1749.56 563.088 1747.32 564.58 1744.62 565.744C1741.92 566.909 1738.75 567.491 1735.12 567.491ZM1736.14 560.545C1740.17 560.545 1743.67 559.651 1746.62 557.861C1749.58 556.071 1751.85 553.699 1753.44 550.744C1755.06 547.761 1755.87 544.48 1755.87 540.901V531.44C1755.3 531.98 1754.35 532.463 1753.01 532.889C1751.71 533.315 1750.19 533.699 1748.45 534.04C1746.75 534.352 1745.04 534.622 1743.34 534.849C1741.64 535.077 1740.1 535.276 1738.74 535.446C1735.04 535.901 1731.89 536.611 1729.28 537.577C1726.66 538.543 1724.66 539.878 1723.27 541.582C1721.88 543.259 1721.18 545.418 1721.18 548.06C1721.18 552.037 1722.6 555.119 1725.44 557.307C1728.28 559.466 1731.85 560.545 1736.14 560.545ZM1783.72 566V500.545H1791.34V566H1783.72ZM1787.59 489.295C1786.03 489.295 1784.7 488.77 1783.59 487.719C1782.48 486.639 1781.93 485.347 1781.93 483.841C1781.93 482.335 1782.48 481.057 1783.59 480.006C1784.7 478.926 1786.03 478.386 1787.59 478.386C1789.16 478.386 1790.49 478.926 1791.6 480.006C1792.71 481.057 1793.26 482.335 1793.26 483.841C1793.26 485.347 1792.71 486.639 1791.6 487.719C1790.49 488.77 1789.16 489.295 1787.59 489.295ZM1811.4 566V500.545H1818.78V510.602H1819.33C1820.64 507.307 1822.91 504.651 1826.15 502.634C1829.42 500.588 1833.11 499.565 1837.23 499.565C1837.85 499.565 1838.55 499.58 1839.32 499.608C1840.08 499.636 1840.72 499.665 1841.23 499.693V507.406C1840.89 507.349 1840.3 507.264 1839.44 507.151C1838.59 507.037 1837.67 506.98 1836.67 506.98C1833.27 506.98 1830.23 507.705 1827.56 509.153C1824.91 510.574 1822.83 512.548 1821.29 515.077C1819.76 517.605 1818.99 520.489 1818.99 523.727V566H1811.4ZM1861.76 525.091V566H1854.18V500.545H1861.55V510.815H1862.23C1863.77 507.463 1866.15 504.778 1869.39 502.761C1872.66 500.716 1876.69 499.693 1881.49 499.693C1885.9 499.693 1889.76 500.616 1893.08 502.463C1896.44 504.281 1899.04 506.966 1900.88 510.517C1902.76 514.068 1903.7 518.429 1903.7 523.599V566H1896.11V524.068C1896.11 518.699 1894.6 514.452 1891.59 511.327C1888.61 508.202 1884.6 506.639 1879.58 506.639C1876.14 506.639 1873.08 507.378 1870.41 508.855C1867.74 510.332 1865.63 512.463 1864.06 515.247C1862.53 518.003 1861.76 521.284 1861.76 525.091ZM1950.13 567.364C1944.03 567.364 1938.74 565.943 1934.28 563.102C1929.82 560.233 1926.37 556.27 1923.93 551.213C1921.51 546.128 1920.3 540.276 1920.3 533.656C1920.3 527.065 1921.51 521.213 1923.93 516.099C1926.37 510.957 1929.74 506.937 1934.03 504.04C1938.34 501.114 1943.33 499.651 1948.98 499.651C1952.53 499.651 1955.96 500.304 1959.25 501.611C1962.55 502.889 1965.5 504.864 1968.12 507.534C1970.76 510.176 1972.85 513.514 1974.38 517.548C1975.91 521.554 1976.68 526.298 1976.68 531.781V535.531H1925.55V528.841H1968.93C1968.93 524.636 1968.07 520.858 1966.37 517.506C1964.69 514.125 1962.35 511.455 1959.34 509.494C1956.36 507.534 1952.9 506.554 1948.98 506.554C1944.84 506.554 1941.18 507.662 1938.03 509.878C1934.88 512.094 1932.41 515.02 1930.62 518.656C1928.86 522.293 1927.96 526.27 1927.93 530.588V534.594C1927.93 539.793 1928.83 544.338 1930.62 548.23C1932.43 552.094 1935.01 555.091 1938.33 557.222C1941.65 559.352 1945.59 560.418 1950.13 560.418C1953.23 560.418 1955.94 559.935 1958.27 558.969C1960.63 558.003 1962.61 556.71 1964.2 555.091C1965.82 553.443 1967.04 551.639 1967.86 549.679L1975.06 552.023C1974.07 554.778 1972.43 557.321 1970.16 559.651C1967.92 561.98 1965.11 563.855 1961.72 565.276C1958.37 566.668 1954.51 567.364 1950.13 567.364ZM2037.37 514.906L2030.43 516.866C2029.75 514.906 2028.78 513.131 2027.53 511.54C2026.28 509.949 2024.65 508.685 2022.63 507.747C2020.64 506.81 2018.17 506.341 2015.22 506.341C2010.78 506.341 2007.15 507.392 2004.31 509.494C2001.47 511.597 2000.04 514.31 2000.04 517.634C2000.04 520.446 2001.01 522.733 2002.94 524.494C2004.9 526.227 2007.91 527.605 2011.98 528.628L2021.86 531.057C2027.35 532.392 2031.45 534.509 2034.18 537.406C2036.93 540.304 2038.31 543.94 2038.31 548.315C2038.31 552.009 2037.29 555.29 2035.24 558.159C2033.2 561.028 2030.34 563.287 2026.68 564.935C2023.04 566.554 2018.82 567.364 2014.02 567.364C2007.63 567.364 2002.36 565.929 1998.21 563.06C1994.06 560.162 1991.41 555.986 1990.24 550.531L1997.53 548.741C1998.47 552.634 2000.3 555.574 2003.03 557.562C2005.78 559.551 2009.41 560.545 2013.89 560.545C2018.92 560.545 2022.94 559.423 2025.95 557.179C2028.97 554.906 2030.47 552.065 2030.47 548.656C2030.47 546.014 2029.59 543.798 2027.83 542.009C2026.07 540.19 2023.4 538.855 2019.82 538.003L2009.12 535.446C2003.44 534.082 1999.24 531.923 1996.51 528.969C1993.78 526.014 1992.42 522.349 1992.42 517.974C1992.42 514.366 1993.4 511.199 1995.36 508.472C1997.32 505.716 2000.02 503.557 2003.45 501.994C2006.89 500.432 2010.81 499.651 2015.22 499.651C2021.21 499.651 2026 501.014 2029.58 503.741C2033.18 506.44 2035.78 510.162 2037.37 514.906ZM2098.9 514.906L2091.95 516.866C2091.27 514.906 2090.3 513.131 2089.05 511.54C2087.8 509.949 2086.17 508.685 2084.15 507.747C2082.16 506.81 2079.69 506.341 2076.74 506.341C2072.31 506.341 2068.67 507.392 2065.83 509.494C2062.99 511.597 2061.57 514.31 2061.57 517.634C2061.57 520.446 2062.53 522.733 2064.47 524.494C2066.43 526.227 2069.44 527.605 2073.5 528.628L2083.39 531.057C2088.87 532.392 2092.97 534.509 2095.7 537.406C2098.46 540.304 2099.84 543.94 2099.84 548.315C2099.84 552.009 2098.81 555.29 2096.77 558.159C2094.72 561.028 2091.87 563.287 2088.2 564.935C2084.57 566.554 2080.35 567.364 2075.55 567.364C2069.15 567.364 2063.88 565.929 2059.74 563.06C2055.59 560.162 2052.93 555.986 2051.77 550.531L2059.05 548.741C2059.99 552.634 2061.82 555.574 2064.55 557.562C2067.31 559.551 2070.93 560.545 2075.42 560.545C2080.45 560.545 2084.47 559.423 2087.48 557.179C2090.49 554.906 2091.99 552.065 2091.99 548.656C2091.99 546.014 2091.11 543.798 2089.35 542.009C2087.59 540.19 2084.92 538.855 2081.34 538.003L2070.64 535.446C2064.96 534.082 2060.76 531.923 2058.03 528.969C2055.3 526.014 2053.94 522.349 2053.94 517.974C2053.94 514.366 2054.92 511.199 2056.88 508.472C2058.84 505.716 2061.54 503.557 2064.98 501.994C2068.41 500.432 2072.34 499.651 2076.74 499.651C2082.73 499.651 2087.52 501.014 2091.1 503.741C2094.71 506.44 2097.31 510.162 2098.9 514.906ZM2176.66 567.364C2170.55 567.364 2165.26 565.943 2160.8 563.102C2156.34 560.233 2152.89 556.27 2150.45 551.213C2148.03 546.128 2146.83 540.276 2146.83 533.656C2146.83 527.065 2148.03 521.213 2150.45 516.099C2152.89 510.957 2156.26 506.937 2160.55 504.04C2164.87 501.114 2169.85 499.651 2175.51 499.651C2179.06 499.651 2182.48 500.304 2185.78 501.611C2189.07 502.889 2192.03 504.864 2194.64 507.534C2197.28 510.176 2199.37 513.514 2200.9 517.548C2202.44 521.554 2203.21 526.298 2203.21 531.781V535.531H2152.07V528.841H2195.45C2195.45 524.636 2194.6 520.858 2192.89 517.506C2191.22 514.125 2188.87 511.455 2185.86 509.494C2182.88 507.534 2179.43 506.554 2175.51 506.554C2171.36 506.554 2167.71 507.662 2164.55 509.878C2161.4 512.094 2158.93 515.02 2157.14 518.656C2155.38 522.293 2154.48 526.27 2154.46 530.588V534.594C2154.46 539.793 2155.35 544.338 2157.14 548.23C2158.96 552.094 2161.53 555.091 2164.85 557.222C2168.18 559.352 2172.11 560.418 2176.66 560.418C2179.75 560.418 2182.47 559.935 2184.8 558.969C2187.15 558.003 2189.13 556.71 2190.72 555.091C2192.34 553.443 2193.56 551.639 2194.38 549.679L2201.59 552.023C2200.59 554.778 2198.96 557.321 2196.69 559.651C2194.44 561.98 2191.63 563.855 2188.25 565.276C2184.9 566.668 2181.03 567.364 2176.66 567.364ZM2225.97 566.639C2224.3 566.639 2222.85 566.043 2221.62 564.849C2220.43 563.628 2219.84 562.179 2219.84 560.503C2219.84 558.798 2220.43 557.349 2221.62 556.156C2222.85 554.963 2224.3 554.366 2225.97 554.366C2227.68 554.366 2229.12 554.963 2230.32 556.156C2231.51 557.349 2232.11 558.798 2232.11 560.503C2232.11 561.611 2231.82 562.634 2231.26 563.571C2230.72 564.509 2229.98 565.261 2229.04 565.83C2228.13 566.369 2227.11 566.639 2225.97 566.639ZM2253.85 478.727L2281.12 555.645H2281.89L2309.16 478.727H2317.52L2285.77 566H2277.25L2245.5 478.727H2253.85ZM2325.35 566.639C2323.67 566.639 2322.22 566.043 2321 564.849C2319.81 563.628 2319.21 562.179 2319.21 560.503C2319.21 558.798 2319.81 557.349 2321 556.156C2322.22 554.963 2323.67 554.366 2325.35 554.366C2327.05 554.366 2328.5 554.963 2329.69 556.156C2330.89 557.349 2331.48 558.798 2331.48 560.503C2331.48 561.611 2331.2 562.634 2330.63 563.571C2330.09 564.509 2329.35 565.261 2328.41 565.83C2327.51 566.369 2326.48 566.639 2325.35 566.639Z" fill="white"/>
</svg>
